<svg width="400" height="100" viewBox="0 0 400 100" fill="none" xmlns="http://www.w3.org/2000/svg">
<path d="M189.61 81.6226L191.746 86.0527L193.888 81.6226H195.577L191.746 89.5395L187.921 81.6226H189.61Z" fill="#1672B7"/>
<path d="M201.813 81.6226V89.2643H200.292V81.6226H201.813Z" fill="#1672B7"/>
<path d="M207.042 89.27V81.6338H209.933C210.66 81.6338 211.281 81.7854 211.79 82.0998C212.254 82.3862 212.601 82.7736 212.825 83.2621C212.998 83.6327 213.076 84.0313 213.071 84.4524C213.071 84.8679 212.981 85.261 212.808 85.6372C212.489 86.3446 211.924 86.85 211.113 87.1532C211.298 87.243 211.477 87.3834 211.656 87.5855L213.121 89.2643H211.102L209.486 87.4114H208.569V89.2643H207.048L207.042 89.27ZM208.563 83.1498V85.8954H209.933C210.666 85.8954 211.164 85.5979 211.432 85.0083C211.516 84.8174 211.561 84.6265 211.561 84.4356C211.561 84.2447 211.522 84.065 211.449 83.8966C211.22 83.4025 210.716 83.1554 209.933 83.1554H208.563V83.1498Z" fill="#1672B7"/>
<path d="M221.169 83.1557V89.2702H219.648V83.1557H217.584V81.6284H223.232V83.1557H221.169Z" fill="#1672B7"/>
<path d="M235.183 81.6172V85.8508C235.183 86.839 234.836 87.6868 234.137 88.3887C233.438 89.0905 232.599 89.4386 231.61 89.4386C230.62 89.4386 229.781 89.0905 229.082 88.3887C228.383 87.6868 228.036 86.8446 228.036 85.8508V81.6172H229.557V85.8508C229.557 86.4179 229.758 86.9064 230.155 87.305C230.553 87.7037 231.039 87.9114 231.604 87.9114C232.169 87.9114 232.655 87.7093 233.052 87.305C233.449 86.9064 233.651 86.4179 233.651 85.8508V81.6172H235.166H235.183Z" fill="#1672B7"/>
<path d="M239.35 89.2702L243.125 81.3027L246.9 89.2702H245.233L244.641 88.0181H241.604L241.011 89.2702H239.344H239.35ZM244.093 86.8502L243.623 85.862C243.516 85.643 243.354 85.25 243.125 84.6997C243.069 84.8176 242.991 85.0085 242.885 85.2668C242.778 85.5251 242.7 85.716 242.638 85.8451L242.163 86.8446H244.093V86.8502Z" fill="#1672B7"/>
<path d="M253.074 81.6226V87.7371H257.017V89.2643H251.553V81.6226H253.074Z" fill="#1672B7"/>
<path d="M268.101 89.2699L269.142 81.2744L272.972 86.7264L276.798 81.2744L277.838 89.2699H276.306L275.791 85.3171L272.972 89.1183L270.148 85.3171L269.634 89.2699H268.101Z" fill="#1672B7"/>
<path d="M289.794 81.6172V85.8508C289.794 86.839 289.448 87.6868 288.749 88.3887C288.05 89.0905 287.211 89.4386 286.221 89.4386C285.231 89.4386 284.392 89.0905 283.693 88.3887C282.994 87.6868 282.647 86.8446 282.647 85.8508V81.6172H284.168V85.8508C284.168 86.4179 284.37 86.9064 284.767 87.305C285.164 87.7037 285.65 87.9114 286.215 87.9114C286.78 87.9114 287.267 87.7093 287.664 87.305C288.061 86.9064 288.262 86.4179 288.262 85.8508V81.6172H289.778H289.794Z" fill="#1672B7"/>
<path d="M296.494 87.0972C296.494 87.4397 296.729 87.6812 297.204 87.8272C297.417 87.8889 297.629 87.917 297.853 87.917C298.077 87.917 298.306 87.8889 298.502 87.8272C298.972 87.6812 299.212 87.4397 299.212 87.0972C299.212 86.8614 299.055 86.6705 298.737 86.5189C298.547 86.4291 298.189 86.3168 297.674 86.1933C296.774 85.9743 296.153 85.7497 295.817 85.5195C295.253 85.1433 294.973 84.5706 294.973 83.8013C294.973 83.2511 295.146 82.7794 295.493 82.3864C295.806 82.0327 296.237 81.78 296.774 81.6172C297.115 81.5105 297.473 81.46 297.853 81.46C298.233 81.46 298.591 81.5105 298.938 81.6172C299.475 81.78 299.9 82.0327 300.213 82.3864C300.56 82.7738 300.733 83.2455 300.733 83.8013H299.212C299.212 83.4645 298.977 83.223 298.502 83.077C298.3 83.0153 298.088 82.9872 297.853 82.9872C297.629 82.9872 297.411 83.0153 297.204 83.077C296.735 83.223 296.494 83.4645 296.494 83.8013C296.494 84.0428 296.656 84.2337 296.975 84.3853C297.165 84.4751 297.517 84.5874 298.032 84.7109C298.932 84.9299 299.553 85.1545 299.889 85.3791C300.454 85.7609 300.733 86.3336 300.733 87.0972C300.733 87.6475 300.56 88.1191 300.213 88.5122C299.9 88.8659 299.475 89.1242 298.938 89.287C298.591 89.3937 298.228 89.4442 297.853 89.4442C297.473 89.4442 297.109 89.3881 296.774 89.287C296.237 89.1242 295.806 88.8659 295.493 88.5122C295.146 88.1248 294.973 87.6531 294.973 87.0972H296.494Z" fill="#1672B7"/>
<path d="M310.878 83.1554H307.439V84.4974H310.56V86.0246H307.439V87.7427H310.878V89.2643H305.918V81.6226H310.878V83.1498V83.1554Z" fill="#1672B7"/>
<path d="M323.036 81.6172V85.8508C323.036 86.839 322.69 87.6868 321.991 88.3887C321.292 89.0905 320.453 89.4386 319.463 89.4386C318.473 89.4386 317.634 89.0905 316.935 88.3887C316.236 87.6868 315.889 86.8446 315.889 85.8508V81.6172H317.41V85.8508C317.41 86.4179 317.612 86.9064 318.009 87.305C318.406 87.7037 318.892 87.9114 319.457 87.9114C320.022 87.9114 320.509 87.7093 320.906 87.305C321.303 86.9064 321.504 86.4179 321.504 85.8508V81.6172H323.02H323.036Z" fill="#1672B7"/>
<path d="M327.846 89.2699L328.886 81.2744L332.717 86.7264L336.542 81.2744L337.582 89.2699H336.05L335.535 85.3171L332.717 89.1183L329.893 85.3171L329.378 89.2699H327.846Z" fill="#1672B7"/>
<path d="M189.912 65.4912V73.4867H195.068V75.4856H187.921V65.4912H189.912Z" fill="#1672B7"/>
<path d="M200.656 75.4856L205.594 65.0645L210.532 75.4856H208.356L207.579 73.846H203.608L202.831 75.4856H200.656ZM206.858 72.3244L206.248 71.033C206.108 70.741 205.896 70.2357 205.594 69.5114C205.521 69.6686 205.415 69.9157 205.281 70.2582C205.141 70.5951 205.034 70.8477 204.956 71.0162L204.33 72.3244H206.858Z" fill="#1672B7"/>
<path d="M219.278 67.4901V75.4856H217.287V67.4901H214.592V65.4912H221.979V67.4901H219.284H219.278Z" fill="#1672B7"/>
<path d="M230.122 65.4912V75.4856H228.131V65.4912H230.122Z" fill="#1672B7"/>
<path d="M236.749 75.4856V65.2217L244.417 71.5608V65.4856H246.408V75.7832L238.74 69.444V75.48H236.749V75.4856Z" fill="#1672B7"/>
<path d="M260.562 75.4856L265.5 65.0645L270.438 75.4856H268.263L267.486 73.846H263.515L262.737 75.4856H260.562ZM266.764 72.3244L266.155 71.033C266.015 70.741 265.802 70.2357 265.5 69.5114C265.427 69.6686 265.321 69.9157 265.187 70.2582C265.047 70.5951 264.941 70.8477 264.863 71.0162L264.236 72.3244H266.764Z" fill="#1672B7"/>
<path d="M275.835 75.4856L277.194 65.0308L282.205 72.156L287.211 65.0308L288.57 75.4856H286.567L285.896 70.3143L282.211 75.2834L278.52 70.3143L277.849 75.4856H275.847H275.835Z" fill="#1672B7"/>
<path d="M301.136 67.4901H296.64V69.2475H300.717V71.2464H296.64V73.4923H301.136V75.4856H294.649V65.4912H301.136V67.4901Z" fill="#1672B7"/>
<path d="M307.489 75.486V65.4972H311.27C312.22 65.4916 313.031 65.6937 313.702 66.1036C314.312 66.4742 314.759 66.9851 315.056 67.6252C315.279 68.1137 315.386 68.6303 315.38 69.1805C315.38 69.7251 315.263 70.2417 315.039 70.7302C314.625 71.6566 313.881 72.3136 312.819 72.7178C313.059 72.8301 313.294 73.021 313.523 73.2849L315.442 75.486H312.796L310.682 73.0604H309.48V75.486H307.489ZM309.48 67.4848V71.0783H311.27C312.226 71.0783 312.88 70.6909 313.227 69.9217C313.339 69.6746 313.395 69.4219 313.4 69.1693C313.4 68.9166 313.35 68.6808 313.255 68.4674C312.958 67.8217 312.299 67.4961 311.27 67.4961L309.48 67.4904V67.4848Z" fill="#1672B7"/>
<path d="M323.601 65.4912V75.4856H321.61V65.4912H323.601Z" fill="#1672B7"/>
<path d="M336.469 67.4903C336.095 67.3443 335.703 67.2713 335.289 67.2713C334.406 67.2713 333.651 67.5858 333.024 68.2146C332.398 68.8435 332.085 69.6015 332.085 70.4886C332.085 71.3758 332.398 72.1394 333.024 72.7682C333.651 73.3971 334.406 73.7115 335.289 73.7115C335.703 73.7115 336.095 73.6329 336.469 73.4813C336.855 73.3297 337.191 73.1164 337.487 72.8412L338.841 74.2955C338.354 74.7559 337.812 75.104 337.208 75.3455C336.592 75.5869 335.955 75.7104 335.289 75.7104C333.858 75.7104 332.633 75.1995 331.615 74.1776C330.597 73.1557 330.088 71.926 330.088 70.483C330.088 69.04 330.597 67.816 331.615 66.7941C332.633 65.7722 333.858 65.2612 335.289 65.2612C335.955 65.2612 336.592 65.3848 337.208 65.6262C337.812 65.8676 338.354 66.2157 338.841 66.6762L337.487 68.1304C337.196 67.8553 336.855 67.6363 336.469 67.4847V67.4903Z" fill="#1672B7"/>
<path d="M343.857 75.4856L348.795 65.0645L353.733 75.4856H351.558L350.78 73.846H346.81L346.032 75.4856H343.857ZM350.059 72.3244L349.449 71.033C349.31 70.741 349.097 70.2357 348.795 69.5114C348.722 69.6686 348.616 69.9157 348.482 70.2582C348.342 70.5951 348.236 70.8477 348.158 71.0162L347.531 72.3244H350.059Z" fill="#1672B7"/>
<path d="M359.606 75.4856V65.2217L367.273 71.5608V65.4856H369.264V75.7832L361.597 69.444V75.48H359.606V75.4856Z" fill="#1672B7"/>
<path d="M195.208 50.8814C194.778 50.713 194.33 50.6287 193.861 50.6287C192.854 50.6287 191.987 50.9881 191.271 51.7068C190.555 52.4255 190.198 53.2902 190.198 54.3064C190.198 55.3227 190.555 56.193 191.271 56.9117C191.987 57.6304 192.848 57.9898 193.861 57.9898C194.33 57.9898 194.783 57.9055 195.208 57.7315C195.65 57.5574 196.036 57.316 196.372 57.0016L197.915 58.6636C197.362 59.1857 196.741 59.59 196.047 59.8595C195.348 60.1402 194.616 60.275 193.861 60.275C192.222 60.275 190.824 59.6911 189.666 58.5288C188.503 57.3609 187.927 55.9572 187.927 54.3064C187.927 52.6557 188.509 51.2576 189.666 50.0953C190.83 48.9274 192.228 48.3491 193.861 48.3491C194.621 48.3491 195.348 48.4895 196.047 48.7646C196.735 49.0397 197.362 49.4384 197.915 49.9606L196.372 51.6226C196.036 51.3081 195.65 51.0611 195.208 50.8814Z" fill="#1672B7"/>
<path d="M201.041 60.0167L206.678 48.1133L212.316 60.0167H209.832L208.949 58.1414H204.419L203.535 60.0167H201.052H201.041ZM208.121 56.4008L207.422 54.9297C207.265 54.5984 207.019 54.0201 206.678 53.1891C206.594 53.3688 206.477 53.6495 206.315 54.0369C206.158 54.4187 206.035 54.7107 205.946 54.9016L205.23 56.3951H208.116L208.121 56.4008Z" fill="#1672B7"/>
<path d="M216.426 60.0167V48.293L225.184 55.5361V48.6018H227.46V60.3648L218.702 53.1217V60.0167H216.426Z" fill="#1672B7"/>
<path d="M231.565 60.0167L237.203 48.1133L242.84 60.0167H240.357L239.473 58.1414H234.943L234.06 60.0167H231.577H231.565ZM238.646 56.4008L237.946 54.9297C237.79 54.5984 237.544 54.0201 237.203 53.1891C237.119 53.3688 237.001 53.6495 236.845 54.0369C236.688 54.4187 236.565 54.7107 236.476 54.9016L235.76 56.3951H238.646V56.4008Z" fill="#1672B7"/>
<path d="M250.188 48.6021C251.754 48.6021 253.096 49.1579 254.204 50.2697C255.317 51.387 255.876 52.7346 255.876 54.3067C255.876 55.8789 255.317 57.2264 254.204 58.3382C253.096 59.4555 251.76 60.017 250.188 60.017H246.95V48.6021H250.188ZM249.226 50.8873V57.7374H250.188C251.128 57.7374 251.933 57.4005 252.593 56.7323C253.264 56.0642 253.594 55.2612 253.594 54.3179C253.594 53.3747 253.259 52.5661 252.593 51.8923C251.928 51.2186 251.128 50.8929 250.188 50.8929H249.226V50.8873Z" fill="#1672B7"/>
<path d="M262.81 48.6021V60.017H260.534V48.6021H262.81Z" fill="#1672B7"/>
<path d="M266.994 60.0167L272.631 48.1133L278.268 60.0167H275.785L274.902 58.1414H270.372L269.488 60.0167H267.005H266.994ZM274.074 56.4008L273.375 54.9297C273.218 54.5984 272.972 54.0201 272.631 53.1891C272.547 53.3688 272.43 53.6495 272.273 54.0369C272.117 54.4187 271.994 54.7107 271.904 54.9016L271.188 56.3951H274.074V56.4008Z" fill="#1672B7"/>
<path d="M282.379 60.0167V48.293L291.137 55.5361V48.6018H293.413V60.3648L284.655 53.1217V60.0167H282.379Z" fill="#1672B7"/>
<path d="M307.433 48.6021V52.8525H312.36V48.6021H314.636V60.017H312.36V55.1377H307.433V60.017H305.157V48.6021H307.433Z" fill="#1672B7"/>
<path d="M321.878 48.6021V60.017H319.602V48.6021H321.878Z" fill="#1672B7"/>
<path d="M329.126 56.7714C329.126 57.2823 329.479 57.6417 330.183 57.855C330.496 57.9449 330.821 57.9898 331.156 57.9898C331.492 57.9898 331.833 57.9449 332.129 57.855C332.834 57.6417 333.186 57.2767 333.186 56.7714C333.186 56.4176 332.946 56.1313 332.471 55.9067C332.185 55.7719 331.654 55.6091 330.888 55.4182C329.546 55.0869 328.617 54.75 328.114 54.4131C327.27 53.8516 326.85 52.9982 326.85 51.8472C326.85 51.0218 327.107 50.3199 327.627 49.736C328.097 49.2138 328.735 48.8264 329.54 48.5849C330.049 48.4277 330.586 48.3491 331.156 48.3491C331.727 48.3491 332.264 48.4277 332.778 48.5849C333.578 48.8264 334.215 49.2082 334.685 49.736C335.205 50.3199 335.463 51.0218 335.463 51.8472H333.186C333.186 51.3418 332.834 50.9825 332.129 50.7691C331.833 50.6793 331.509 50.6344 331.156 50.6344C330.821 50.6287 330.496 50.6737 330.183 50.7691C329.479 50.9825 329.126 51.3418 329.126 51.8472C329.126 52.2065 329.367 52.4929 329.848 52.7231C330.133 52.8578 330.659 53.0207 331.425 53.2116C332.773 53.5428 333.701 53.8741 334.199 54.211C335.038 54.7781 335.463 55.6315 335.463 56.777C335.463 57.6024 335.205 58.3042 334.685 58.8881C334.215 59.4159 333.578 59.8034 332.778 60.0448C332.258 60.202 331.721 60.2806 331.156 60.2806C330.586 60.275 330.049 60.1964 329.54 60.0448C328.735 59.8034 328.097 59.4159 327.627 58.8881C327.107 58.3042 326.85 57.6024 326.85 56.777H329.126V56.7714Z" fill="#1672B7"/>
<path d="M342.621 57.2431V60.0168H340.356V48.6075H344.679C345.759 48.6019 346.687 48.8321 347.453 49.2981C348.141 49.7249 348.656 50.3032 348.997 51.0387C349.243 51.5778 349.366 52.1617 349.366 52.7793V52.8186C349.355 53.4363 349.226 54.0258 348.975 54.5817C348.499 55.6485 347.733 56.4065 346.67 56.8557C346.195 57.0578 345.569 57.1814 344.786 57.2431H342.621ZM342.621 50.8759V54.9803H344.674C345.759 54.9803 346.503 54.5368 346.9 53.6552C347.023 53.3745 347.09 53.0882 347.095 52.7962V52.7569C347.095 52.4817 347.039 52.2291 346.933 51.9933C346.592 51.2521 345.843 50.8815 344.674 50.8759H342.621Z" fill="#1672B7"/>
<path d="M351.53 60.0167L357.167 48.1133L362.805 60.0167H360.321L359.438 58.1414H354.908L354.024 60.0167H351.541H351.53ZM358.61 56.4008L357.911 54.9297C357.754 54.5984 357.508 54.0201 357.167 53.1891C357.083 53.3688 356.966 53.6495 356.809 54.0369C356.653 54.4187 356.53 54.7107 356.44 54.9016L355.724 56.3951H358.61V56.4008Z" fill="#1672B7"/>
<path d="M366.915 60.0167V48.293L375.673 55.5361V48.6018H377.949V60.3648L369.191 53.1217V60.0167H366.915Z" fill="#1672B7"/>
<path d="M385.191 48.6021V60.017H382.915V48.6021H385.191Z" fill="#1672B7"/>
<path d="M397.293 50.8814C396.863 50.713 396.415 50.6287 395.945 50.6287C394.939 50.6287 394.072 50.9881 393.356 51.7068C392.64 52.4255 392.282 53.2902 392.282 54.3064C392.282 55.3227 392.64 56.193 393.356 56.9117C394.072 57.6304 394.933 57.9898 395.945 57.9898C396.415 57.9898 396.868 57.9055 397.293 57.7315C397.735 57.5574 398.121 57.316 398.456 57.0016L400 58.6636C399.446 59.1857 398.826 59.59 398.132 59.8595C397.433 60.1402 396.7 60.275 395.945 60.275C394.307 60.275 392.909 59.6911 391.751 58.5288C390.588 57.3609 390.012 55.9572 390.012 54.3064C390.012 52.6557 390.593 51.2576 391.751 50.0953C392.909 48.9331 394.312 48.3491 395.945 48.3491C396.706 48.3491 397.433 48.4895 398.132 48.7646C398.82 49.0397 399.446 49.4384 400 49.9606L398.456 51.6226C398.121 51.3081 397.735 51.0611 397.293 50.8814Z" fill="#1672B7"/>
<path d="M205.845 16.4627C204.788 16.0472 203.686 15.845 202.529 15.845C200.046 15.845 197.926 16.7322 196.159 18.5009C194.392 20.2695 193.514 22.4032 193.514 24.8961C193.514 27.3891 194.397 29.5396 196.159 31.3083C197.921 33.0769 200.046 33.9641 202.529 33.9641C203.686 33.9641 204.794 33.7507 205.845 33.324C206.924 32.8973 207.875 32.2965 208.703 31.5216L212.506 35.6092C211.141 36.9006 209.609 37.8832 207.914 38.5514C206.192 39.2364 204.397 39.5789 202.529 39.5789C198.502 39.5789 195.063 38.1471 192.205 35.278C189.347 32.4088 187.921 28.9444 187.921 24.8905C187.921 20.8366 189.347 17.3891 192.205 14.5256C195.063 11.6564 198.502 10.2246 202.529 10.2246C204.391 10.2246 206.186 10.5671 207.914 11.2521C209.614 11.9259 211.141 12.9029 212.506 14.1943L208.703 18.2819C207.881 17.507 206.93 16.9006 205.845 16.4627Z" fill="#E75125"/>
<path d="M229.921 10.6851V21.1455H242.04V10.6851H247.638V38.776H242.04V26.7659H229.921V38.776H224.323V10.6851H229.921Z" fill="#E75125"/>
<path d="M267.078 10.8423V33.3128H281.568V38.9332H261.48V10.8423H267.078Z" fill="#E75125"/>
<path d="M292.339 38.9332L306.214 9.64062L320.089 38.9332H313.971L311.79 34.3234H300.638L298.457 38.9332H292.339ZM309.765 30.0393L308.048 26.4177C307.662 25.6036 307.053 24.1774 306.214 22.1392C306.007 22.5772 305.711 23.2734 305.325 24.2336C304.939 25.1768 304.637 25.8843 304.419 26.3672L302.663 30.0505H309.765V30.0393Z" fill="#E75125"/>
<path d="M331.777 10.8423L339.629 27.114L347.503 10.8423H353.717L339.629 39.9383L325.564 10.8423H331.777Z" fill="#E75125"/>
<path d="M362.2 38.9334L366.02 9.54541L380.108 29.5791L394.173 9.54541L397.992 38.9334H392.361L390.471 24.4022L380.108 38.3719L369.728 24.4022L367.838 38.9334H362.206H362.2Z" fill="#E75125"/>
<path d="M83.8111 33.4082C55.3228 33.4082 40.2063 66.4851 40.2063 66.4851C41.3024 67.8664 56.7825 67.9113 56.7825 67.9113C56.7825 67.9113 64.2765 39.4722 83.8111 39.4722C103.346 39.4722 110.84 67.9113 110.84 67.9113C110.84 67.9113 126.32 67.872 127.416 66.4851C127.416 66.4851 112.299 33.4082 83.8111 33.4082Z" fill="#C5C6C5"/>
<path d="M83.8111 0C53.2312 0 42.4265 27.9169 42.4265 27.9169L59.9311 32.0382C59.9311 32.0382 63.3369 8.71421 83.8111 8.71421C104.285 8.71421 107.691 32.0382 107.691 32.0382L125.196 27.9169C125.196 27.9169 114.391 0 83.8111 0Z" fill="#C5C6C5"/>
<path d="M61.7822 35.3791C62.1121 34.9187 62.0954 34.2842 61.7542 33.8294C60.535 32.1843 56.0778 27.8608 42.969 27.8608C26.7843 27.8608 11.7404 34.127 11.7404 34.127C11.7404 34.127 4.15137 37.2488 4.15137 41.7463C4.15137 46.2438 9.74388 48.529 9.74388 48.529C9.74388 48.529 31.7448 56.6593 31.5435 52.4875C31.4093 49.6688 19.2232 47.6306 19.2232 44.8401C19.2232 42.0495 27.4609 40.3651 27.4609 40.3651C27.4609 40.3651 39.4289 37.5913 51.6933 37.844C58.7231 37.99 61.0272 36.4347 61.7822 35.3791Z" fill="#1672B7"/>
<path d="M105.845 35.3791C105.515 34.9187 105.532 34.2842 105.873 33.8294C107.093 32.1843 111.55 27.8608 124.659 27.8608C140.843 27.8608 155.887 34.127 155.887 34.127C155.887 34.127 163.476 37.2488 163.476 41.7463C163.476 46.2438 157.884 48.529 157.884 48.529C157.884 48.529 135.883 56.6593 136.084 52.4875C136.218 49.6688 148.404 47.6306 148.404 44.8401C148.404 42.0495 140.167 40.3651 140.167 40.3651C140.167 40.3651 128.199 37.5913 115.934 37.844C108.904 37.99 106.6 36.4347 105.845 35.3791Z" fill="#1672B7"/>
<path d="M123.87 82.5041C124.597 82.2122 125.453 81.7854 125.984 81.2464C126.135 81.0892 126.269 80.9264 126.381 80.7411C126.666 80.3031 127.186 80.0336 127.712 80.0505C130.223 80.2189 132.785 80.3705 135.229 79.7304L135.318 79.7023L135.352 79.6911L135.368 79.6855C135.346 79.6855 136.431 79.8989 136.431 79.8989C137.779 80.9881 140.894 81.1061 142.655 81.1903C144.4 81.2352 146.162 81.1903 147.901 81.0162C148.449 80.9488 149.003 80.8927 149.54 80.786C149.305 80.567 149.076 80.3424 148.841 79.9494C148.634 79.6013 148.527 79.1858 148.522 78.7815C148.5 77.9898 149.204 77.6249 149.886 77.5687C151.894 77.3947 153.874 77.5463 155.859 77.5687C157.05 77.5968 158.236 77.6249 159.405 77.6024C159.802 77.5856 160.216 77.5799 160.624 77.5463C159.897 77.1757 159.148 76.8612 158.409 76.4345C158.309 76.3728 158.113 76.2155 158.018 76.0415C157.996 76.0078 157.945 75.9067 157.912 75.7439C157.889 75.5811 157.901 75.5193 157.923 75.4182C157.984 75.1207 158.186 74.8961 158.437 74.7669C158.6 74.6827 158.862 74.6322 159.013 74.6153C159.992 74.5255 160.887 74.5872 161.838 74.6209C162.727 74.6602 163.616 74.7164 164.5 74.7725C162.609 73.6664 160.613 72.5547 158.577 71.8079L158.488 71.7798L158.443 71.7686C157.811 71.6507 157.677 70.7748 158.236 70.4716C158.985 70.0785 160.244 69.416 161.032 69.0005C161.211 68.8545 161.318 68.6187 161.301 68.3772L161.15 67.1083L160.853 64.5311C160.317 59.9382 159.612 53.6664 159.142 49.0679C159.947 53.6159 160.988 59.8539 161.726 64.4076L162.145 66.9679L162.347 68.265C162.425 68.8714 162.162 69.5171 161.675 69.8989C161.189 70.1852 160.507 70.5783 159.88 70.9376C160.725 71.252 161.519 71.6338 162.347 72.01C163.717 72.6726 165.076 73.3688 166.373 74.1774C166.787 74.4637 167.251 74.6995 167.525 75.1768C167.81 75.7214 167.43 76.3503 166.849 76.4008H166.815L166.742 76.4064H166.692H166.63H166.513H166.278L165.367 76.384C164.248 76.3615 163.124 76.2998 162 76.2717C162.005 76.2717 162.011 76.2773 162.022 76.2829C162.52 76.5861 163.04 76.8107 163.314 77.434C163.515 77.9168 163.297 78.5064 162.872 78.7984C162.414 79.1184 161.804 79.2195 161.346 79.2869C160.697 79.3767 160.076 79.4104 159.461 79.4328C157.017 79.5171 154.618 79.4328 152.247 79.4104C151.81 79.4104 151.38 79.4104 150.955 79.4216C151.005 79.4665 151.055 79.5114 151.106 79.562C151.313 79.7473 151.531 79.9943 151.682 80.2414C151.984 80.7635 152.107 81.5103 151.659 81.982C151.217 82.4424 150.552 82.5547 149.976 82.6894C148.729 82.9365 147.521 83.0376 146.274 83.1162C143.539 83.2509 138.036 83.3464 135.542 81.6563C133.115 82.2571 130.548 82.156 128.087 81.982C128.087 81.982 127.958 81.9707 127.835 81.9595C127.785 82.0269 127.735 82.0999 127.712 82.1336C125.643 84.5423 121.997 84.969 119.061 85.0982C118.507 85.0926 117.646 85.0926 117.092 85.0757C115.99 85.0027 114.777 84.9241 113.692 84.7557C112.428 84.6041 111.108 84.3458 109.866 84.11C108.972 83.9022 107.635 83.6215 106.628 83.3632C113.071 88.8545 119.525 94.3963 125.855 99.9999C119.765 95.3565 113.736 90.6344 107.736 85.8786C107.249 85.5081 104.386 83.2116 103.983 82.9084C103.938 82.8747 103.743 82.7119 103.704 82.6838L103.659 82.6445L103.636 82.6277C103.385 82.4424 103.29 82.0718 103.39 81.7854C103.463 81.5777 103.631 81.398 103.866 81.3138C103.983 81.2745 104.106 81.2689 104.212 81.2857C104.274 81.297 104.319 81.3082 104.308 81.3026H104.324L104.38 81.3194L104.61 81.3756L106.455 81.8135C107.434 82.0718 109.184 82.3862 110.157 82.5884M161.715 78.1976C161.726 78.2144 161.726 78.2032 161.715 78.1976ZM150.01 81.2464C150.01 81.2464 150.01 81.2464 150.004 81.2408C150.004 81.2408 150.004 81.2408 150.01 81.2464ZM127.969 81.763L127.947 81.7967C127.947 81.7967 127.947 81.7967 127.947 81.8023C127.958 81.7911 127.969 81.7742 127.975 81.763H127.969Z" fill="#C5C6C5"/>
<path d="M63.6501 82.9196C63.6949 82.8859 63.8906 82.7231 63.9298 82.695L63.9745 82.6557L63.9969 82.6389C64.2485 82.4536 64.3436 82.083 64.2429 81.7967C64.1702 81.5889 64.0025 81.4093 63.7676 81.325C63.6501 81.2857 63.5271 81.2801 63.4208 81.297C63.3593 81.3082 63.3146 81.3194 63.3258 81.3138H63.309L63.2531 81.3306L63.0238 81.3868L61.1782 81.8247C60.1996 82.083 58.4491 82.3975 57.476 82.5996C56.2624 82.7961 54.9706 83.0095 53.7458 83.1274C50.3679 83.4699 46.9509 83.6103 43.752 82.5041C43.025 82.2122 42.1693 81.7854 41.638 81.2464C41.487 81.0892 41.3528 80.9264 41.2409 80.7411C40.9557 80.3031 40.4356 80.0336 39.9099 80.0505C37.3989 80.2189 34.8375 80.3705 32.3936 79.7304L32.3041 79.7023L32.2706 79.6911L32.2538 79.6855C32.2762 79.6855 31.1912 79.8989 31.1912 79.8989C29.8434 80.9881 26.7284 81.1061 24.9667 81.1903C23.2219 81.2352 21.4602 81.1903 19.721 81.0162C19.1729 80.9488 18.6192 80.8927 18.0824 80.786C18.3172 80.567 18.5465 80.3424 18.7814 79.9494C18.9883 79.6013 19.0946 79.1858 19.1002 78.7815C19.1226 77.9898 18.4179 77.6249 17.7356 77.5687C15.7279 77.3947 13.7482 77.5463 11.7628 77.5687C10.5716 77.5968 9.38601 77.6249 8.21717 77.6024C7.82011 77.5856 7.40626 77.5799 6.99801 77.5463C7.72503 77.1757 8.47443 76.8612 9.21264 76.4345C9.31331 76.3728 9.50904 76.2155 9.60412 76.0415C9.62649 76.0078 9.67682 75.9067 9.71037 75.7439C9.73274 75.5811 9.72156 75.5193 9.69919 75.4182C9.63767 75.1207 9.43634 74.8961 9.18468 74.7669C9.02249 74.6827 8.75965 74.6322 8.60865 74.6153C7.62996 74.5255 6.73516 74.5872 5.78443 74.6209C4.89522 74.6602 4.00601 74.7164 3.1224 74.7725C5.01267 73.6664 7.00919 72.5547 9.04487 71.8079L9.13435 71.7798L9.17909 71.7686C9.81104 71.6507 9.94526 70.7748 9.38601 70.4716C8.63661 70.0785 7.3783 69.416 6.58975 69.0005C6.41079 68.8545 6.30453 68.6187 6.32131 68.3772L6.47231 67.1083L6.76871 64.5311C7.30559 59.9382 8.01025 53.6664 8.48002 49.0679C7.6747 53.6159 6.63449 59.8539 5.89628 64.4076L5.47684 66.9679L5.27551 68.265C5.19722 68.8714 5.46007 69.5171 5.94661 69.8989C6.43316 70.1852 7.11545 70.5783 7.74181 70.9376C6.89734 71.252 6.1032 71.6338 5.27551 72.01C3.90535 72.6726 2.54637 73.3688 1.24891 74.1774C0.835061 74.4637 0.370883 74.6995 0.0968496 75.1768C-0.188368 75.7214 0.191922 76.3503 0.773543 76.4008H0.807098L0.879801 76.4064H0.930134H0.991651H1.10909H1.34398L2.25556 76.384C3.37406 76.3615 4.49815 76.2998 5.62225 76.2717C5.61666 76.2717 5.61106 76.2773 5.59988 76.2829C5.10215 76.5861 4.58204 76.8107 4.30801 77.434C4.10668 77.9168 4.32479 78.5064 4.74982 78.7984C5.2084 79.1184 5.81799 79.2195 6.27657 79.2869C6.9253 79.3767 7.54607 79.4104 8.16125 79.4328C10.6052 79.5171 13.0044 79.4328 15.3756 79.4104C15.8118 79.4104 16.2424 79.4104 16.6675 79.4216C16.6171 79.4665 16.5668 79.5114 16.5165 79.562C16.3095 79.7473 16.0914 79.9943 15.9404 80.2414C15.6384 80.7635 15.5154 81.5103 15.9628 81.982C16.4046 82.4424 17.0701 82.5547 17.6461 82.6894C18.8933 82.9365 20.1013 83.0376 21.3484 83.1162C24.0831 83.2509 29.5862 83.3464 32.0804 81.6563C34.5076 82.2571 37.0745 82.156 39.5352 81.982C39.5352 81.982 39.6639 81.9707 39.7869 81.9595C39.8372 82.0269 39.8876 82.0999 39.9099 82.1336C41.9792 84.5423 45.6255 84.969 48.5615 85.0982C49.1152 85.0926 49.9764 85.0926 50.5301 85.0757C51.6318 85.0027 52.8454 84.9241 53.9303 84.7557C55.1943 84.6041 56.5141 84.3458 57.7556 84.11C58.6504 83.9022 59.987 83.6215 60.9937 83.3632C54.5511 88.8545 48.0974 94.3963 41.7666 99.9999M5.91865 78.2088C5.90747 78.2256 5.90747 78.2144 5.91865 78.2088ZM17.6238 81.2577C17.6238 81.2577 17.6238 81.2577 17.6294 81.252C17.6294 81.252 17.6294 81.252 17.6238 81.2577ZM39.6639 81.7742L39.6862 81.8079C39.6862 81.8079 39.6862 81.8079 39.6862 81.8135C39.675 81.8023 39.6639 81.7854 39.6583 81.7742H39.6639Z" fill="#C5C6C5"/>
<path d="M131.521 65.9852C131.157 65.6034 130.738 65.4406 130.29 65.2441C129.457 64.9128 128.601 64.6938 127.74 64.531C128.73 64.9746 129.72 65.4069 130.576 66.047C130.732 66.1705 130.878 66.3109 130.962 66.44C131.001 66.5018 131.017 66.558 131.012 66.5748C131.001 66.586 131.006 66.5636 130.984 66.586C130.939 66.6309 130.777 66.7208 130.609 66.7769C129.977 67.0015 129.2 67.0633 128.512 67.0914C127.556 67.1194 126.594 67.1194 125.637 67.0689C122.651 66.9341 119.648 66.5074 116.701 66.0077C114.984 65.7382 114.206 68.0571 115.711 68.9106C116.069 69.1352 116.516 69.4103 116.963 69.6854C116.326 69.7416 115.688 69.7865 115.056 69.8202C110.812 70.0391 106.522 69.7977 102.378 68.8207C102.261 68.787 102.143 68.7758 102.02 68.8095C99.7833 69.3766 97.4512 69.6798 95.1359 69.7584C94.353 69.7865 93.5644 69.7696 92.7759 69.7472C93.1618 69.8426 93.5421 69.9493 93.9335 70.0167C96.6235 70.5445 99.3862 70.6006 102.104 70.2244C106.293 71.6618 110.75 72.1222 115.146 71.9763C116.248 71.9313 117.377 71.8527 118.479 71.7236C118.552 71.7124 118.753 71.6843 118.848 71.645C119.961 71.3081 120.403 69.8426 119.659 68.9274C119.469 68.6804 119.195 68.5175 118.932 68.3603C122.159 68.6804 125.419 68.7702 128.635 68.2817C129.452 68.1526 130.218 67.9897 130.984 67.6023C131.638 67.2991 132.102 66.6141 131.526 65.9852H131.521ZM116.751 67.0633C116.74 67.0577 116.734 67.0521 116.751 67.0633Z" fill="#32A8DF"/>
<path d="M72.4917 69.7525C70.1764 69.6683 67.8499 69.3707 65.6073 68.8036C65.501 68.77 65.3612 68.7812 65.2494 68.8149C60.4846 69.9266 55.5408 70.1063 50.6753 69.6796C50.7983 69.6009 50.899 69.5448 50.9549 69.5111C51.1339 69.3988 51.6092 69.1068 51.7826 68.9945C51.805 68.9833 51.9336 68.8991 51.956 68.8879C53.0074 68.2983 52.9626 66.6869 51.8777 66.1478C51.5925 65.9962 51.2401 65.9569 50.9326 66.0075C47.9853 66.5072 44.9765 66.9339 41.9957 67.0687C40.9331 67.1192 39.8706 67.1304 38.808 67.0687C38.2208 67.0462 37.5609 66.9564 37.024 66.7711C36.8562 66.7149 36.694 66.6251 36.6493 66.5802C36.6269 66.5577 36.6325 66.5802 36.6213 66.5689C36.6101 66.5577 36.6325 66.496 36.6717 66.4342C36.873 66.1422 37.2477 65.8895 37.5721 65.6874C38.2991 65.2495 39.0932 64.8733 39.8985 64.5251C39.0373 64.688 38.1816 64.9013 37.3484 65.2382C36.901 65.4348 36.4815 65.5976 36.118 65.9794C35.1337 67.1866 37.1079 67.866 37.9971 68.0793C40.1838 68.551 42.4375 68.6408 44.6634 68.6015C46.0056 68.579 47.3589 68.4836 48.7067 68.3545C48.6173 68.4106 48.5278 68.4611 48.4439 68.5117C48.4159 68.5285 48.3376 68.5847 48.3041 68.6071C47.1129 69.4718 47.5715 71.4314 49.0031 71.684C51.05 71.9479 53.108 72.0153 55.1661 71.976C58.6726 71.875 62.2015 71.3584 65.5402 70.213C66.284 70.3253 66.9942 70.3814 67.7436 70.4207C70.1372 70.533 72.5532 70.3477 74.8741 69.7301C74.08 69.7525 73.297 69.7694 72.514 69.7413L72.4917 69.7525Z" fill="#32A8DF"/>
<path d="M150.446 69.478H156.223V42.9536H150.446V69.478Z" fill="#32A8DF"/>
<path d="M149.943 41.9429H156.671V36.4123H149.943V41.9429Z" fill="#32A8DF"/>
<path d="M149.518 40.3315H157.157V37.9565H149.518V40.3315Z" fill="white"/>
<path d="M136.666 68.9497H142.689V40.9205H136.666V68.9497Z" fill="#32A8DF"/>
<path d="M136.19 39.7417H143.159V34.2111H136.19V39.7417Z" fill="#32A8DF"/>
<path d="M135.693 38.3325H143.662V35.6206H135.693V38.3325Z" fill="white"/>
<path d="M111.684 69.6631H117.993V38.7984H111.684V69.6631Z" fill="#32A8DF"/>
<path d="M111.03 37.9507H118.647V31.3308H111.03V37.9507Z" fill="#32A8DF"/>
<path d="M110.482 36.2661H119.195V33.0207H110.482V36.2661Z" fill="white"/>
<path d="M17.1765 42.9478H11.3994V69.4722H17.1765V42.9478Z" fill="#32A8DF"/>
<path d="M17.6797 36.4067H10.9519V41.9373H17.6797V36.4067Z" fill="#32A8DF"/>
<path d="M18.1049 37.9507H10.4656V40.3258H18.1049V37.9507Z" fill="white"/>
<path d="M30.9565 40.915H24.9333V68.9442H30.9565V40.915Z" fill="#32A8DF"/>
<path d="M31.4258 34.2114H24.4575V39.742H31.4258V34.2114Z" fill="#32A8DF"/>
<path d="M31.9293 35.6206H23.96V38.3326H31.9293V35.6206Z" fill="white"/>
<path d="M55.938 38.793H49.6296V69.6577H55.938V38.793Z" fill="#32A8DF"/>
<path d="M56.5926 31.3364H48.9756V37.9563H56.5926V31.3364Z" fill="#32A8DF"/>
<path d="M57.1406 33.021H48.4275V36.2664H57.1406V33.021Z" fill="white"/>
<path d="M96.9424 64.739H70.5625L68.6946 47.771H98.7655L96.9424 64.739Z" fill="#C5C6C5"/>
<path d="M92.9548 62.2569H74.5722L73.3586 50.2524H94.1069L92.9548 62.2569Z" fill="#1D1D1B"/>
</svg>
