<svg width="32" height="25" viewBox="0 0 32 25" fill="none" xmlns="http://www.w3.org/2000/svg">
<path d="M6.17001 20.9499H8.44001V19.4099L6.17001 20.7299V20.9499Z" fill="#E65126"/>
<path d="M8.44001 3.71997H6.17001V15.22L8.44001 13.9V3.71997Z" fill="#E65126"/>
<path d="M13.96 0H11.69V12.01L13.96 10.69V0Z" fill="#E65126"/>
<path d="M11.69 25H13.96V16.2L11.69 17.52V25Z" fill="#E65126"/>
<path d="M17.21 8.11011V8.80011L18.39 8.11011H17.21Z" fill="#E65126"/>
<path d="M17.21 16.89H19.47V12.99L17.21 14.31V16.89Z" fill="#E65126"/>
<path d="M24.99 3.71997H22.73V5.57997L24.99 4.26997V3.71997Z" fill="#E65126"/>
<path d="M22.73 11.1V20.95H24.99V9.78003L22.73 11.1Z" fill="#E65126"/>
<path d="M30.02 2.79004L24.99 5.71004V8.34004L31.16 4.74004L30.02 2.79004Z" fill="#E65126"/>
<path d="M0 20.2599L1.14 22.2099L6.17 19.2899V16.6599L0 20.2599Z" fill="#E65126"/>
<path d="M13.96 12.13V14.76L17.21 12.86V10.24L13.96 12.13Z" fill="#E65126"/>
<path d="M19.47 8.92003V11.55L22.73 9.65003V7.03003L19.47 8.92003Z" fill="#E65126"/>
<path d="M8.44 15.35V17.97L11.69 16.08V13.45L8.44 15.35Z" fill="#E65126"/>
<path d="M6.17001 16.6601V19.2901L8.44001 17.9701V15.3501L6.17001 16.6601Z" fill="#E65126"/>
<path d="M11.69 13.4499V16.0799L13.96 14.7599V12.1299L11.69 13.4499Z" fill="#E65126"/>
<path d="M17.21 10.2399V12.8599L19.47 11.5499V8.91992L17.21 10.2399Z" fill="#E65126"/>
<path d="M22.73 7.02996V9.64996L24.99 8.33996V5.70996L22.73 7.02996Z" fill="#E65126"/>
</svg>
