<svg width="30" height="30" viewBox="0 0 30 30" fill="none" xmlns="http://www.w3.org/2000/svg">
<rect x="1" y="1" width="28" height="28" rx="2" fill="#FCEDE8" stroke="#E65126" stroke-width="2"/>
<rect x="17" y="17" width="8" height="8" rx="2" fill="#E65126"/>
<path d="M14.2929 15.7071C14.6834 16.0976 15.3166 16.0976 15.7071 15.7071C16.0976 15.3166 16.0976 14.6834 15.7071 14.2929L14.2929 15.7071ZM5 4C4.44772 4 4 4.44772 4 5V14C4 14.5523 4.44772 15 5 15C5.55228 15 6 14.5523 6 14V6H14C14.5523 6 15 5.55228 15 5C15 4.44772 14.5523 4 14 4H5ZM15.7071 14.2929L5.70711 4.29289L4.29289 5.70711L14.2929 15.7071L15.7071 14.2929Z" fill="#E65126"/>
</svg>
