<svg width="22" height="29" viewBox="0 0 22 29" fill="none" xmlns="http://www.w3.org/2000/svg">
<path d="M0.929993 9.84352C0.929993 7.36352 1.91 5.24352 3.87 3.49352C5.84 1.73352 8.21999 0.853516 10.99 0.853516C13.76 0.853516 16.15 1.73352 18.11 3.49352C20.08 5.24352 21.07 7.24352 21.07 9.50352C21.07 10.9535 20.58 12.3935 19.59 13.8335C18.62 15.2835 17.29 16.3835 15.62 17.1535L15.58 17.1735C14.79 17.5235 14.17 18.0335 13.71 18.7135C13.25 19.3635 13.02 20.0835 13.02 20.8835V21.0735H7.60999V20.8835C7.60999 19.1935 8.10999 17.6335 9.10999 16.1835C10.11 14.7335 11.45 13.6335 13.14 12.8635C13.91 12.4935 14.53 11.9735 14.98 11.3235C15.43 10.6735 15.65 10.0735 15.65 9.50352C15.65 8.58352 15.19 7.71352 14.28 6.92352C13.38 6.11352 12.29 5.70352 11 5.70352C9.71 5.70352 8.63 6.11352 7.72 6.92352C6.82 7.72352 6.37 8.69352 6.37 9.84352H0.940002H0.929993ZM13.01 23.1835V28.6135H7.57999V23.1835H13.01Z" fill="#E65126"/>
</svg>
