<svg width="24" height="24" viewBox="0 0 24 24" fill="none" xmlns="http://www.w3.org/2000/svg">
<path d="M2.06836 0.0527344H3.1582C3.24023 0.181641 3.29883 0.275391 3.33398 0.333984C3.66211 0.896484 3.91406 1.26562 4.08984 1.44141C4.24219 1.48828 5.04492 1.51172 6.49805 1.51172C7.40039 1.51172 8.20312 1.50586 8.90625 1.49414L9.25781 1.44141L11.3848 1.42383L15.3574 1.45898H20.7891L21.8262 1.30078C21.9785 1.19531 22.1426 0.914062 22.3184 0.457031C22.3652 0.351562 22.4297 0.205078 22.5117 0.0175781L23.2852 0C23.4023 0 23.5781 0.00585938 23.8125 0.0175781C23.8242 0.826172 23.8301 2.04492 23.8301 3.67383L23.8477 5.23828L23.8301 6.13477C23.8301 6.43945 23.8066 6.70312 23.7598 6.92578C23.2793 7.07812 22.8574 7.17188 22.4941 7.20703C22.1895 6.75 21.8555 6.08789 21.4922 5.2207C21.1406 4.35352 20.918 3.87305 20.8242 3.7793C20.6836 3.62695 20.5195 3.52734 20.332 3.48047C20.0508 3.42188 18.8086 3.39258 16.6055 3.39258C16.2773 3.39258 15.8672 3.41602 15.375 3.46289C15.3047 3.91992 15.2695 4.29492 15.2695 4.58789L15.2871 6.94336V12.1113L15.3574 17.6836L15.3398 19.9688C15.3398 20.7773 15.4102 21.3867 15.5508 21.7969C15.7383 21.8789 16.084 21.9551 16.5879 22.0254C16.6816 22.0371 17.1152 22.1309 17.8887 22.3066C18.2402 22.3887 18.5508 22.4824 18.8203 22.5879C18.8789 23.0098 18.9082 23.2676 18.9082 23.3613C18.9082 23.4668 18.8906 23.6191 18.8555 23.8184C18.5977 23.8301 18.3867 23.8359 18.2227 23.8359C17.0156 23.8359 15.9902 23.7949 15.1465 23.7129C14.3027 23.6191 12.7734 23.5723 10.5586 23.5723C10.207 23.5723 9.17578 23.6426 7.46484 23.7832C6.79688 23.8301 6.36328 23.8535 6.16406 23.8535C6.15234 23.6777 6.14062 23.543 6.12891 23.4492L6.11133 23.0449V22.9043C6.36914 22.5645 6.85547 22.3125 7.57031 22.1484C8.78906 21.8555 9.63281 21.5918 10.1016 21.3574C10.2188 21.1348 10.2891 20.8418 10.3125 20.4785C10.3945 19.0723 10.4355 16.834 10.4355 13.7637L10.3477 7.11914C10.3477 5.29102 10.3125 4.18359 10.2422 3.79688C10.2188 3.69141 10.1777 3.61523 10.1191 3.56836C10.0605 3.50977 9.97852 3.47461 9.87305 3.46289C9.50977 3.41602 8.32617 3.39258 6.32227 3.39258C5.2207 3.39258 4.48242 3.49805 4.10742 3.70898C3.60352 4.00195 2.84766 4.79883 1.83984 6.09961C1.54688 6.47461 1.33008 6.66211 1.18945 6.66211C0.650391 6.38086 0.304688 6.15234 0.152344 5.97656C0.515625 5.21484 1.01953 3.69141 1.66406 1.40625C1.85156 0.738281 1.98633 0.287109 2.06836 0.0527344Z" fill="#E65126"/>
</svg>
